<?xml version="1.0" standalone="no"?><svg xmlns="http://www.w3.org/2000/svg" viewBox="0 0 1440 320"><path fill="#a2d9ff" fill-opacity="1" d="M0,160L21.8,144C43.6,128,87,96,131,106.7C174.5,117,218,171,262,192C305.5,213,349,203,393,197.3C436.4,192,480,192,524,165.3C567.3,139,611,85,655,74.7C698.2,64,742,96,785,128C829.1,160,873,192,916,213.3C960,235,1004,245,1047,229.3C1090.9,213,1135,171,1178,154.7C1221.8,139,1265,149,1309,154.7C1352.7,160,1396,160,1418,160L1440,160L1440,320L1418.2,320C1396.4,320,1353,320,1309,320C1265.5,320,1222,320,1178,320C1134.5,320,1091,320,1047,320C1003.6,320,960,320,916,320C872.7,320,829,320,785,320C741.8,320,698,320,655,320C610.9,320,567,320,524,320C480,320,436,320,393,320C349.1,320,305,320,262,320C218.2,320,175,320,131,320C87.3,320,44,320,22,320L0,320Z"></path></svg>