<?xml version="1.0" standalone="no"?><svg xmlns="http://www.w3.org/2000/svg" viewBox="0 0 1440 320"><path fill="#0099ff" fill-opacity="1" d="M0,288L40,282.7C80,277,160,267,240,261.3C320,256,400,256,480,256C560,256,640,256,720,218.7C800,181,880,107,960,85.3C1040,64,1120,96,1200,128C1280,160,1360,192,1400,208L1440,224L1440,320L1400,320C1360,320,1280,320,1200,320C1120,320,1040,320,960,320C880,320,800,320,720,320C640,320,560,320,480,320C400,320,320,320,240,320C160,320,80,320,40,320L0,320Z"></path></svg>