<?xml version="1.0" standalone="no"?><svg xmlns="http://www.w3.org/2000/svg" viewBox="0 0 1440 320"><path fill="#a2d9ff" fill-opacity="1" d="M0,192L30,160C60,128,120,64,180,32C240,0,300,0,360,48C420,96,480,192,540,202.7C600,213,660,139,720,128C780,117,840,171,900,186.7C960,203,1020,181,1080,149.3C1140,117,1200,75,1260,101.3C1320,128,1380,224,1410,272L1440,320L1440,320L1410,320C1380,320,1320,320,1260,320C1200,320,1140,320,1080,320C1020,320,960,320,900,320C840,320,780,320,720,320C660,320,600,320,540,320C480,320,420,320,360,320C300,320,240,320,180,320C120,320,60,320,30,320L0,320Z"></path></svg>