<?xml version="1.0" standalone="no"?><svg xmlns="http://www.w3.org/2000/svg" viewBox="0 0 1440 320"><path fill="#0099ff" fill-opacity="1" d="M0,288L40,261.3C80,235,160,181,240,138.7C320,96,400,64,480,42.7C560,21,640,11,720,53.3C800,96,880,192,960,197.3C1040,203,1120,117,1200,112C1280,107,1360,181,1400,218.7L1440,256L1440,320L1400,320C1360,320,1280,320,1200,320C1120,320,1040,320,960,320C880,320,800,320,720,320C640,320,560,320,480,320C400,320,320,320,240,320C160,320,80,320,40,320L0,320Z"></path></svg>